<svg width="22" height="23" viewBox="0 0 22 23" fill="none" xmlns="http://www.w3.org/2000/svg">
<path d="M21.5093 11.3496C21.5113 11.3496 21.5127 11.3496 21.5146 11.3496C21.6485 11.3496 21.7762 11.2934 21.8669 11.195C21.9591 11.0952 22.0047 10.9613 21.9927 10.8259C21.5108 5.52528 17.3141 1.3272 12.013 0.84432C11.8786 0.83376 11.7433 0.87744 11.6434 0.97008C11.5436 1.06224 11.4879 1.19232 11.4893 1.32816C11.5729 8.37264 12.5021 11.2512 21.5093 11.3496ZM21.5093 12.323C12.5021 12.4214 11.5733 15.3 11.4898 22.3445C11.4884 22.4803 11.5441 22.6104 11.6439 22.7026C11.7332 22.7846 11.8498 22.8302 11.9698 22.8302C11.9842 22.8302 11.9991 22.8298 12.0135 22.8283C17.3146 22.3454 21.5113 18.1478 21.9927 12.8467C22.0047 12.7114 21.9596 12.5774 21.8669 12.4776C21.7743 12.3778 21.6452 12.3283 21.5093 12.323ZM9.95527 0.84672C4.67095 1.34352 0.487747 5.54064 0.00822701 10.8269C-0.00377299 10.9622 0.0413471 11.0962 0.133987 11.196C0.224707 11.2944 0.352867 11.3501 0.486307 11.3501C0.488227 11.3501 0.490147 11.3501 0.492067 11.3501C9.46951 11.2469 10.3964 8.36976 10.4809 1.33008C10.4823 1.19424 10.4261 1.06368 10.3263 0.97152C10.2255 0.87936 10.0906 0.83424 9.95527 0.84672ZM0.491587 12.3226C0.342307 12.3058 0.225187 12.3768 0.133507 12.4766C0.0413471 12.5765 -0.00425296 12.7104 0.00774704 12.8458C0.487267 18.132 4.67095 22.3291 9.95527 22.8259C9.97015 22.8274 9.98551 22.8278 10.0004 22.8278C10.1204 22.8278 10.2365 22.7827 10.3258 22.7006C10.4257 22.6085 10.4818 22.4779 10.4804 22.3421C10.3959 15.3029 9.46951 12.4258 0.491587 12.3226Z" fill="white"/>
</svg>
