<svg width="200" height="200" viewBox="0 0 200 200" fill="none" xmlns="http://www.w3.org/2000/svg">
<path d="M12.0333 55.5751C9.24297 56.3723 6.70915 57.8844 4.68258 59.9616C2.65602 62.0388 1.20695 64.6092 0.478768 67.4184C-0.249414 70.2275 -0.231474 73.1782 0.530815 75.9783C1.2931 78.7784 2.77332 81.331 4.82499 83.3834L33.2583 111.783V166.667H88.2L116.825 195.25C118.361 196.8 120.189 198.03 122.203 198.871C124.216 199.712 126.376 200.147 128.558 200.15C129.993 200.147 131.421 199.962 132.808 199.6C135.616 198.893 138.188 197.458 140.266 195.441C142.343 193.424 143.852 190.894 144.642 188.108L199.925 0.175049L12.0333 55.5751ZM16.6667 71.6001L158.567 29.7667L49.9417 138.217V104.883L16.6667 71.6001ZM128.667 183.467L95.1083 150H61.775L170.383 41.4834L128.667 183.467Z" fill="white" fill-opacity="0.2"/>
</svg>
