<svg width="40" height="40" viewBox="0 0 40 40" fill="none" xmlns="http://www.w3.org/2000/svg">
<path d="M39.7879 29.2138C39.7394 29.1092 39.6943 29.0225 39.6523 28.953C38.9583 27.7012 37.6321 26.1646 35.6745 24.3429L35.6331 24.3012L35.6124 24.2807L35.5915 24.2598H35.5705C34.682 23.4115 34.1194 22.8411 33.8838 22.5491C33.4527 21.9929 33.3561 21.4298 33.5917 20.8593C33.7582 20.4283 34.3834 19.518 35.4661 18.1272C36.0356 17.3901 36.4866 16.7993 36.8197 16.3543C39.2218 13.1558 40.2632 11.1119 39.9437 10.2219L39.8197 10.0139C39.7363 9.88864 39.5211 9.77409 39.1744 9.66961C38.8269 9.56536 38.3827 9.54812 37.8411 9.6176L31.8433 9.65909C31.7461 9.62461 31.6074 9.62782 31.4266 9.66961C31.2461 9.7114 31.1558 9.73237 31.1558 9.73237L31.0514 9.78461L30.9685 9.84736C30.8991 9.88886 30.8227 9.96185 30.7393 10.0662C30.6564 10.1701 30.587 10.2921 30.5316 10.4312C29.8786 12.1138 29.1362 13.6782 28.3029 15.1243C27.7892 15.9866 27.3174 16.7339 26.8865 17.3666C26.4562 17.9992 26.0952 18.4652 25.8038 18.7639C25.512 19.063 25.2487 19.3025 25.0122 19.4835C24.7761 19.6645 24.5958 19.741 24.471 19.713C24.3459 19.685 24.2281 19.6573 24.1166 19.6295C23.9223 19.5043 23.7661 19.334 23.6483 19.1185C23.53 18.903 23.4503 18.6317 23.4087 18.3049C23.3672 17.9779 23.3427 17.6966 23.3357 17.4601C23.3292 17.2239 23.3322 16.8898 23.3463 16.4588C23.3607 16.0275 23.3672 15.7358 23.3672 15.5828C23.3672 15.0543 23.3775 14.4807 23.3982 13.8619C23.4192 13.2431 23.4362 12.7528 23.4504 12.3916C23.4645 12.03 23.4711 11.6475 23.4711 11.2442C23.4711 10.841 23.4466 10.5247 23.3982 10.2951C23.3503 10.0659 23.2769 9.84334 23.1801 9.6276C23.0827 9.41208 22.9401 9.24537 22.7531 9.12701C22.5657 9.00881 22.3327 8.915 22.0555 8.8453C21.3195 8.67851 20.3824 8.58828 19.2437 8.57426C16.6613 8.54649 15.0021 8.7135 14.2662 9.07507C13.9746 9.22783 13.7108 9.43656 13.4749 9.70059C13.2249 10.0066 13.19 10.1736 13.3705 10.2011C14.2037 10.3261 14.7935 10.6251 15.1407 11.0979L15.2658 11.3484C15.3631 11.5292 15.4602 11.8491 15.5575 12.308C15.6546 12.7668 15.7172 13.2743 15.7448 13.8303C15.8141 14.8455 15.8141 15.7146 15.7448 16.4376C15.6753 17.1609 15.6096 17.7239 15.547 18.1272C15.4843 18.5305 15.3906 18.8573 15.2658 19.1075C15.1407 19.3578 15.0574 19.5108 15.0157 19.5663C14.9741 19.6218 14.9393 19.6568 14.9118 19.6706C14.7313 19.7398 14.5436 19.7751 14.3494 19.7751C14.1548 19.7751 13.9189 19.6777 13.6413 19.4829C13.3637 19.2881 13.0757 19.0206 12.7771 18.6798C12.4785 18.339 12.1418 17.8628 11.7668 17.251C11.3921 16.6392 11.0033 15.9161 10.6006 15.0818L10.2675 14.4767C10.0592 14.0875 9.77476 13.5207 9.41376 12.7769C9.05253 12.0328 8.73325 11.313 8.4557 10.6178C8.34475 10.3257 8.17807 10.1034 7.95595 9.95045L7.85171 9.88769C7.78242 9.83217 7.67118 9.77321 7.51858 9.71038C7.36576 9.64762 7.2063 9.60262 7.03955 9.57493L1.33314 9.61643C0.750019 9.61643 0.354366 9.74873 0.146036 10.013L0.0626597 10.138C0.0210081 10.2076 0 10.3188 0 10.4719C0 10.6248 0.0416515 10.8126 0.125028 11.0349C0.958058 12.9958 1.86396 14.8869 2.84274 16.7085C3.82151 18.5301 4.67205 19.9975 5.39384 21.1093C6.11577 22.2219 6.85164 23.272 7.60144 24.259C8.35124 25.2463 8.84756 25.8791 9.09039 26.1571C9.33352 26.4356 9.52449 26.6438 9.6633 26.7828L10.1841 27.2833C10.5173 27.6171 11.0066 28.0169 11.6522 28.4827C12.298 28.9487 13.0129 29.4075 13.7974 29.8598C14.582 30.3114 15.4947 30.6799 16.5362 30.9649C17.5775 31.2502 18.591 31.3647 19.5768 31.3094H21.9719C22.4576 31.2674 22.8256 31.1144 23.0758 30.8504L23.1586 30.7459C23.2143 30.6629 23.2665 30.5339 23.3146 30.3604C23.3634 30.1866 23.3876 29.9951 23.3876 29.7868C23.3734 29.189 23.4188 28.6502 23.5227 28.1705C23.6265 27.6909 23.7448 27.3294 23.8771 27.0859C24.0094 26.8426 24.1586 26.6373 24.3247 26.4709C24.4912 26.3041 24.6098 26.203 24.6794 26.1683C24.7485 26.1333 24.8037 26.1095 24.8454 26.0953C25.1786 25.9841 25.5708 26.0918 26.0224 26.4189C26.4737 26.7456 26.897 27.1491 27.293 27.6287C27.6887 28.1087 28.1642 28.6472 28.7194 29.245C29.275 29.8431 29.7609 30.2876 30.1772 30.5801L30.5936 30.8304C30.8717 30.9974 31.2327 31.1504 31.677 31.2894C32.1206 31.4284 32.5093 31.4631 32.843 31.3937L38.1743 31.3104C38.7016 31.3104 39.112 31.2229 39.403 31.0494C39.6946 30.8756 39.8679 30.6841 39.9238 30.4758C39.9795 30.2673 39.9825 30.0308 39.9343 29.7663C39.8849 29.5025 39.8363 29.318 39.7879 29.2138Z" fill="white"/>
</svg>
