<svg width="35" height="35" viewBox="0 0 35 35" fill="none" xmlns="http://www.w3.org/2000/svg">
<g clip-path="url(#clip0_3394_4059)">
<path fill-rule="evenodd" clip-rule="evenodd" d="M29.8408 5.08667C26.5654 1.80833 22.2108 0.00145833 17.5718 0C8.01245 0 0.23224 7.77875 0.227865 17.3425C0.226406 20.3992 1.02557 23.3829 2.5437 26.0137L0.0820312 35L9.27536 32.5879C11.8085 33.9704 14.661 34.6981 17.5631 34.6996H17.5704C27.1283 34.6996 34.9099 26.9194 34.9143 17.3556C34.9172 12.7225 33.1147 8.36354 29.8408 5.08667ZM17.5718 31.7698H17.566C14.9789 31.7698 12.4429 31.0742 10.2291 29.7602L9.70266 29.4481L4.24703 30.8788L5.70391 25.5587L5.3612 25.0133C3.91745 22.7179 3.1562 20.0652 3.15766 17.3425C3.16057 9.39458 9.62828 2.92833 17.5791 2.92833C21.4291 2.92833 25.0487 4.43042 27.7699 7.15458C30.4912 9.88021 31.9889 13.5013 31.9874 17.3527C31.9831 25.3035 25.5168 31.7698 17.5718 31.7698ZM25.4789 20.9738C25.0458 20.7565 22.9152 19.7079 22.517 19.5635C22.1204 19.4192 21.8316 19.3463 21.5414 19.7794C21.2512 20.2125 20.4229 21.1896 20.1691 21.4798C19.9168 21.7685 19.6631 21.805 19.2299 21.5877C18.7968 21.3704 17.3997 20.914 15.7445 19.4367C14.4568 18.2875 13.5862 16.8685 13.3339 16.434C13.0816 15.9994 13.3077 15.766 13.5235 15.5502C13.7189 15.3563 13.9566 15.0442 14.1739 14.7904C14.3927 14.5396 14.4641 14.3588 14.6099 14.0685C14.7543 13.7798 14.6829 13.526 14.5735 13.3088C14.4641 13.0929 13.5979 10.9594 13.2377 10.0917C12.8862 9.24583 12.5289 9.36104 12.262 9.34792C12.0097 9.33479 11.721 9.33333 11.4308 9.33333C11.142 9.33333 10.6724 9.44125 10.2758 9.87583C9.87911 10.3104 8.75911 11.359 8.75911 13.491C8.75911 15.6246 10.3122 17.6852 10.5281 17.974C10.7439 18.2627 13.5833 22.6406 17.9306 24.5175C18.9645 24.9638 19.7724 25.2306 20.401 25.4304C21.4393 25.76 22.3843 25.7133 23.131 25.6025C23.9637 25.4785 25.6947 24.554 26.0564 23.5419C26.4181 22.5298 26.4181 21.6606 26.3087 21.4812C26.2008 21.299 25.912 21.191 25.4789 20.9738Z" fill="white"/>
</g>
<defs>
<clipPath id="clip0_3394_4059">
<rect width="35" height="35" fill="white"/>
</clipPath>
</defs>
</svg>
