<svg width="40" height="40" viewBox="0 0 40 40" fill="none" xmlns="http://www.w3.org/2000/svg">
<g clip-path="url(#clip0_1_3)">
<path d="M39.1633 10.31C38.7033 8.57833 37.3483 7.21333 35.6267 6.75C32.5083 5.91 20 5.91 20 5.91C20 5.91 7.49167 5.91 4.37167 6.75C2.65167 7.21333 1.29667 8.57667 0.836667 10.31C0 13.45 0 20 0 20C0 20 0 26.55 0.836667 29.69C1.29667 31.4217 2.65167 32.7867 4.37333 33.25C7.49167 34.09 20 34.09 20 34.09C20 34.09 32.5083 34.09 35.6283 33.25C37.3483 32.7867 38.7033 31.4233 39.165 29.69C40 26.55 40 20 40 20C40 20 40 13.45 39.1633 10.31ZM15.91 25.9483V14.0517L26.3633 20L15.91 25.9483Z" fill="white"/>
</g>
<defs>
<clipPath id="clip0_1_3">
<rect width="40" height="40" fill="white"/>
</clipPath>
</defs>
</svg>
