<svg width="20" height="14" viewBox="0 0 20 14" fill="none" xmlns="http://www.w3.org/2000/svg">
<path d="M10.4245 13.4287L6.4905 13.3569C5.21676 13.3318 3.93985 13.3818 2.69108 13.1225C0.791421 12.735 0.656842 10.8352 0.51602 9.24167C0.321981 7.00132 0.397099 4.72031 0.763275 2.49867C0.969994 1.25209 1.78352 0.50825 3.0416 0.427306C7.28856 0.133548 11.5638 0.168362 15.8013 0.30541C16.2488 0.317974 16.6995 0.386642 17.1407 0.464805C19.3191 0.846028 19.3722 2.99891 19.5134 4.81123C19.6542 6.64225 19.5948 8.48268 19.3256 10.3012C19.1097 11.8069 18.6965 13.0696 16.953 13.1915C14.7684 13.3509 12.6339 13.4792 10.4432 13.4384C10.4433 13.4287 10.4307 13.4287 10.4245 13.4287ZM8.11169 9.61666C9.75795 8.67295 11.3728 7.74497 13.0096 6.80759C11.3603 5.86389 9.74853 4.93591 8.11169 3.99853V9.61666Z" fill="white"/>
</svg>
