<svg width="135" height="46" viewBox="0 0 135 46" fill="none" xmlns="http://www.w3.org/2000/svg">
<path d="M1.45131 0.23024H5.80522L10.4037 11.5449H10.5994L15.1979 0.23024H19.5519V17.0706H16.1274V6.10958H15.9888L11.6675 16.9884H9.33565L5.01434 6.06846H4.87574V17.0706H1.45131V0.23024Z" fill="white"/>
<path d="M24.1907 17.0706H20.4076L26.172 0.23024H30.7216L36.4779 17.0706H32.6947L28.512 4.07853H28.3816L24.1907 17.0706ZM23.9543 10.4512H32.8904V13.2306H23.9543V10.4512Z" fill="white"/>
<path d="M37.3397 0.23024H41.6937L46.2922 11.5449H46.4879L51.0864 0.23024H55.4403V17.0706H52.0159V6.10958H51.8773L47.556 16.9884H45.2241L40.9028 6.06846H40.7642V17.0706H37.3397V0.23024Z" fill="white"/>
<path d="M72.5457 8.65044C72.5457 10.4869 72.2006 12.0492 71.5103 13.3375C70.8254 14.6257 69.8904 15.6097 68.7055 16.2895C67.526 16.9637 66.1997 17.3009 64.7266 17.3009C63.2427 17.3009 61.911 16.961 60.7315 16.2812C59.5519 15.6015 58.6197 14.6175 57.9348 13.3292C57.25 12.041 56.9075 10.4814 56.9075 8.65044C56.9075 6.814 57.25 5.25166 57.9348 3.96341C58.6197 2.67517 59.5519 1.69391 60.7315 1.01963C61.911 0.339878 63.2427 0 64.7266 0C66.1997 0 67.526 0.339878 68.7055 1.01963C69.8904 1.69391 70.8254 2.67517 71.5103 3.96341C72.2006 5.25166 72.5457 6.814 72.5457 8.65044ZM68.9664 8.65044C68.9664 7.46087 68.7897 6.45768 68.4364 5.64088C68.0885 4.82407 67.5966 4.20462 66.9607 3.78251C66.3247 3.36041 65.58 3.14935 64.7266 3.14935C63.8732 3.14935 63.1286 3.36041 62.4926 3.78251C61.8566 4.20462 61.362 4.82407 61.0087 5.64088C60.6608 6.45768 60.4869 7.46087 60.4869 8.65044C60.4869 9.84001 60.6608 10.8432 61.0087 11.66C61.362 12.4768 61.8566 13.0963 62.4926 13.5184C63.1286 13.9405 63.8732 14.1515 64.7266 14.1515C65.58 14.1515 66.3247 13.9405 66.9607 13.5184C67.5966 13.0963 68.0885 12.4768 68.4364 11.66C68.7897 10.8432 68.9664 9.84001 68.9664 8.65044Z" fill="white"/>
<path d="M87.9797 0.23024V17.0706H84.9304L77.6657 6.47138H77.5434V17.0706H74.0129V0.23024H77.1112L84.3188 10.8213H84.4656V0.23024H87.9797Z" fill="white"/>
<path d="M89.1126 3.1658V0.23024H102.827V3.1658H97.7145V17.0706H94.2248V3.1658H89.1126Z" fill="white"/>
<path d="M118.52 8.65044C118.52 10.4869 118.174 12.0492 117.484 13.3375C116.799 14.6257 115.864 15.6097 114.679 16.2895C113.5 16.9637 112.173 17.3009 110.7 17.3009C109.216 17.3009 107.885 16.961 106.705 16.2812C105.526 15.6015 104.594 14.6175 103.909 13.3292C103.224 12.041 102.881 10.4814 102.881 8.65044C102.881 6.814 103.224 5.25166 103.909 3.96341C104.594 2.67517 105.526 1.69391 106.705 1.01963C107.885 0.339878 109.216 0 110.7 0C112.173 0 113.5 0.339878 114.679 1.01963C115.864 1.69391 116.799 2.67517 117.484 3.96341C118.174 5.25166 118.52 6.814 118.52 8.65044ZM114.94 8.65044C114.94 7.46087 114.764 6.45768 114.41 5.64088C114.062 4.82407 113.57 4.20462 112.934 3.78251C112.298 3.36041 111.554 3.14935 110.7 3.14935C109.847 3.14935 109.102 3.36041 108.466 3.78251C107.83 4.20462 107.336 4.82407 106.982 5.64088C106.635 6.45768 106.461 7.46087 106.461 8.65044C106.461 9.84001 106.635 10.8432 106.982 11.66C107.336 12.4768 107.83 13.0963 108.466 13.5184C109.102 13.9405 109.847 14.1515 110.7 14.1515C111.554 14.1515 112.298 13.9405 112.934 13.5184C113.57 13.0963 114.062 12.4768 114.41 11.66C114.764 10.8432 114.94 9.84001 114.94 8.65044Z" fill="white"/>
<path d="M122.062 0.23024L126.098 13.025H126.253L130.297 0.23024H134.21L128.454 17.0706H123.904L118.14 0.23024H122.062Z" fill="white"/>
<path d="M22.96 35.3782V38.1576H0V35.3782H22.96Z" fill="white"/>
<path d="M22.6273 31.2832V28.3477H36.3414V31.2832H31.2292V45.1881H27.7395V31.2832H22.6273Z" fill="white"/>
<path d="M52.0342 36.7679C52.0342 38.6043 51.6891 40.1667 50.9987 41.4549C50.3139 42.7432 49.3789 43.7272 48.194 44.4069C47.0144 45.0812 45.6881 45.4183 44.2151 45.4183C42.7312 45.4183 41.3995 45.0784 40.2199 44.3987C39.0404 43.7189 38.1082 42.7349 37.4233 41.4467C36.7384 40.1584 36.396 38.5988 36.396 36.7679C36.396 34.9315 36.7384 33.3691 37.4233 32.0809C38.1082 30.7926 39.0404 29.8114 40.2199 29.1371C41.3995 28.4573 42.7312 28.1174 44.2151 28.1174C45.6881 28.1174 47.0144 28.4573 48.194 29.1371C49.3789 29.8114 50.3139 30.7926 50.9987 32.0809C51.6891 33.3691 52.0342 34.9315 52.0342 36.7679ZM48.4549 36.7679C48.4549 35.5783 48.2782 34.5751 47.9249 33.7583C47.577 32.9415 47.0851 32.3221 46.4491 31.9C45.8132 31.4779 45.0685 31.2668 44.2151 31.2668C43.3617 31.2668 42.617 31.4779 41.9811 31.9C41.3451 32.3221 40.8505 32.9415 40.4971 33.7583C40.1493 34.5751 39.9753 35.5783 39.9753 36.7679C39.9753 37.9575 40.1493 38.9607 40.4971 39.7775C40.8505 40.5943 41.3451 41.2137 41.9811 41.6358C42.617 42.0579 43.3617 42.269 44.2151 42.269C45.0685 42.269 45.8132 42.0579 46.4491 41.6358C47.0851 41.2137 47.577 40.5943 47.9249 39.7775C48.2782 38.9607 48.4549 37.9575 48.4549 36.7679Z" fill="white"/>
<path d="M53.5014 45.1881V28.3477H60.0894C61.3559 28.3477 62.4348 28.5916 63.3263 29.0795C64.2177 29.5619 64.8972 30.2335 65.3646 31.0941C65.8375 31.9493 66.074 32.936 66.074 34.0543C66.074 35.1727 65.8348 36.1594 65.3565 37.0146C64.8781 37.8698 64.1851 38.5358 63.2774 39.0127C62.375 39.4897 61.2825 39.7281 59.9997 39.7281H55.8007V36.8748H59.4289C60.1084 36.8748 60.6683 36.7569 61.1085 36.5212C61.5543 36.28 61.8858 35.9483 62.1033 35.5262C62.3261 35.0987 62.4375 34.608 62.4375 34.0543C62.4375 33.4952 62.3261 33.0073 62.1033 32.5907C61.8858 32.1686 61.5543 31.8424 61.1085 31.6122C60.6628 31.3764 60.0975 31.2586 59.4126 31.2586H57.0318V45.1881H53.5014Z" fill="white"/>
</svg>
