<svg width="135" height="47" viewBox="0 0 135 47" fill="none" xmlns="http://www.w3.org/2000/svg">
<path d="M1.45131 1.02107H5.80522L10.4037 12.3357H10.5994L15.1979 1.02107H19.5519V17.8615H16.1274V6.90041H15.9888L11.6675 17.7792H9.33565L5.01434 6.8593H4.87574V17.8615H1.45131V1.02107Z" fill="#2D2C2C"/>
<path d="M24.1907 17.8615H20.4076L26.172 1.02107H30.7216L36.4779 17.8615H32.6947L28.512 4.86937H28.3816L24.1907 17.8615ZM23.9543 11.2421H32.8904V14.0214H23.9543V11.2421Z" fill="#2D2C2C"/>
<path d="M37.3397 1.02107H41.6937L46.2922 12.3357H46.4879L51.0864 1.02107H55.4403V17.8615H52.0159V6.90041H51.8773L47.556 17.7792H45.2241L40.9028 6.8593H40.7642V17.8615H37.3397V1.02107Z" fill="#2D2C2C"/>
<path d="M72.5457 9.44127C72.5457 11.2777 72.2006 12.84 71.5103 14.1283C70.8254 15.4165 69.8904 16.4005 68.7055 17.0803C67.526 17.7546 66.1997 18.0917 64.7266 18.0917C63.2427 18.0917 61.911 17.7518 60.7315 17.0721C59.5519 16.3923 58.6197 15.4083 57.9348 14.1201C57.25 12.8318 56.9075 11.2722 56.9075 9.44127C56.9075 7.60484 57.25 6.04249 57.9348 4.75425C58.6197 3.466 59.5519 2.48474 60.7315 1.81047C61.911 1.13071 63.2427 0.790833 64.7266 0.790833C66.1997 0.790833 67.526 1.13071 68.7055 1.81047C69.8904 2.48474 70.8254 3.466 71.5103 4.75425C72.2006 6.04249 72.5457 7.60484 72.5457 9.44127ZM68.9664 9.44127C68.9664 8.2517 68.7897 7.24851 68.4364 6.43171C68.0885 5.61491 67.5966 4.99545 66.9607 4.57334C66.3247 4.15124 65.58 3.94019 64.7266 3.94019C63.8732 3.94019 63.1286 4.15124 62.4926 4.57334C61.8566 4.99545 61.362 5.61491 61.0087 6.43171C60.6608 7.24851 60.4869 8.2517 60.4869 9.44127C60.4869 10.6308 60.6608 11.634 61.0087 12.4508C61.362 13.2676 61.8566 13.8871 62.4926 14.3092C63.1286 14.7313 63.8732 14.9424 64.7266 14.9424C65.58 14.9424 66.3247 14.7313 66.9607 14.3092C67.5966 13.8871 68.0885 13.2676 68.4364 12.4508C68.7897 11.634 68.9664 10.6308 68.9664 9.44127Z" fill="#2D2C2C"/>
<path d="M87.9797 1.02107V17.8615H84.9304L77.6657 7.26222H77.5434V17.8615H74.0129V1.02107H77.1112L84.3188 11.6121H84.4656V1.02107H87.9797Z" fill="#2D2C2C"/>
<path d="M89.1126 3.95663V1.02107H102.827V3.95663H97.7145V17.8615H94.2248V3.95663H89.1126Z" fill="#2D2C2C"/>
<path d="M118.52 9.44127C118.52 11.2777 118.174 12.84 117.484 14.1283C116.799 15.4165 115.864 16.4005 114.679 17.0803C113.5 17.7546 112.173 18.0917 110.7 18.0917C109.216 18.0917 107.885 17.7518 106.705 17.0721C105.526 16.3923 104.594 15.4083 103.909 14.1201C103.224 12.8318 102.881 11.2722 102.881 9.44127C102.881 7.60484 103.224 6.04249 103.909 4.75425C104.594 3.466 105.526 2.48474 106.705 1.81047C107.885 1.13071 109.216 0.790833 110.7 0.790833C112.173 0.790833 113.5 1.13071 114.679 1.81047C115.864 2.48474 116.799 3.466 117.484 4.75425C118.174 6.04249 118.52 7.60484 118.52 9.44127ZM114.94 9.44127C114.94 8.2517 114.764 7.24851 114.41 6.43171C114.062 5.61491 113.57 4.99545 112.934 4.57334C112.298 4.15124 111.554 3.94019 110.7 3.94019C109.847 3.94019 109.102 4.15124 108.466 4.57334C107.83 4.99545 107.336 5.61491 106.982 6.43171C106.635 7.24851 106.461 8.2517 106.461 9.44127C106.461 10.6308 106.635 11.634 106.982 12.4508C107.336 13.2676 107.83 13.8871 108.466 14.3092C109.102 14.7313 109.847 14.9424 110.7 14.9424C111.554 14.9424 112.298 14.7313 112.934 14.3092C113.57 13.8871 114.062 13.2676 114.41 12.4508C114.764 11.634 114.94 10.6308 114.94 9.44127Z" fill="#2D2C2C"/>
<path d="M122.062 1.02107L126.098 13.8158H126.253L130.297 1.02107H134.21L128.454 17.8615H123.904L118.14 1.02107H122.062Z" fill="#2D2C2C"/>
<path d="M22.96 36.1691V38.9484H0V36.1691H22.96Z" fill="#2D2C2C"/>
<path d="M22.6273 32.0741V29.1385H36.3414V32.0741H31.2292V45.9789H27.7395V32.0741H22.6273Z" fill="#2D2C2C"/>
<path d="M52.0342 37.5587C52.0342 39.3952 51.6891 40.9575 50.9987 42.2457C50.3139 43.534 49.3789 44.518 48.194 45.1978C47.0144 45.872 45.6881 46.2092 44.2151 46.2092C42.7312 46.2092 41.3995 45.8693 40.2199 45.1895C39.0404 44.5098 38.1082 43.5258 37.4233 42.2375C36.7384 40.9493 36.396 39.3897 36.396 37.5587C36.396 35.7223 36.7384 34.1599 37.4233 32.8717C38.1082 31.5834 39.0404 30.6022 40.2199 29.9279C41.3995 29.2482 42.7312 28.9083 44.2151 28.9083C45.6881 28.9083 47.0144 29.2482 48.194 29.9279C49.3789 30.6022 50.3139 31.5834 50.9987 32.8717C51.6891 34.1599 52.0342 35.7223 52.0342 37.5587ZM48.4549 37.5587C48.4549 36.3691 48.2782 35.366 47.9249 34.5492C47.577 33.7324 47.0851 33.1129 46.4491 32.6908C45.8132 32.2687 45.0685 32.0576 44.2151 32.0576C43.3617 32.0576 42.617 32.2687 41.9811 32.6908C41.3451 33.1129 40.8505 33.7324 40.4971 34.5492C40.1493 35.366 39.9753 36.3691 39.9753 37.5587C39.9753 38.7483 40.1493 39.7515 40.4971 40.5683C40.8505 41.3851 41.3451 42.0045 41.9811 42.4266C42.617 42.8488 43.3617 43.0598 44.2151 43.0598C45.0685 43.0598 45.8132 42.8488 46.4491 42.4266C47.0851 42.0045 47.577 41.3851 47.9249 40.5683C48.2782 39.7515 48.4549 38.7483 48.4549 37.5587Z" fill="#2D2C2C"/>
<path d="M53.5014 45.9789V29.1385H60.0894C61.3559 29.1385 62.4348 29.3825 63.3263 29.8704C64.2177 30.3528 64.8972 31.0243 65.3646 31.885C65.8375 32.7401 66.074 33.7269 66.074 34.8452C66.074 35.9635 65.8348 36.9502 65.3565 37.8054C64.8781 38.6606 64.1851 39.3266 63.2774 39.8036C62.375 40.2805 61.2825 40.5189 59.9997 40.5189H55.8007V37.6656H59.4289C60.1084 37.6656 60.6683 37.5478 61.1085 37.312C61.5543 37.0708 61.8858 36.7392 62.1033 36.3171C62.3261 35.8895 62.4375 35.3989 62.4375 34.8452C62.4375 34.286 62.3261 33.7981 62.1033 33.3815C61.8858 32.9594 61.5543 32.6332 61.1085 32.403C60.6628 32.1673 60.0975 32.0494 59.4126 32.0494H57.0318V45.9789H53.5014Z" fill="#2D2C2C"/>
</svg>
